inDegrees=no
num_controls=7
num_derivatives=13
num_iterations=80
num_multipliers=7
num_parameters=0
num_slacks=7
num_states=26
objective=0.516604
objective_accelerations=0.041606
objective_balance=0.002312
objective_effort=0.046106
objective_height=0.414989
objective_ligament=0.011591
solver_duration=1071.822528
status=Solve_Succeeded
success=true
DataType=double
version=3
OpenSimVersion=4.5
endheader
time	/jointset/ground_pelvis/pelvis_tilt/value	/jointset/ground_pelvis/pelvis_tx/value	/jointset/ground_pelvis/pelvis_ty/value	/jointset/hip_l/hip_flexion_l/value	/jointset/hip_l/hip_adduction_l/value	/jointset/hip_l/hip_rotation_l/value	/jointset/back/lumbar_extension/value	/jointset/patellofemoral_l/patellar_flexion_l/value	/jointset/knee_l/knee_flexion_l/value	/jointset/knee_l/knee_adduction_l/value	/jointset/knee_l/knee_rotation_l/value	/jointset/ankle_l/ankle_angle_l/value	/jointset/subtalar_l/subtalar_angle_l/value	/jointset/ground_pelvis/pelvis_tilt/speed	/jointset/ground_pelvis/pelvis_tx/speed	/jointset/ground_pelvis/pelvis_ty/speed	/jointset/hip_l/hip_flexion_l/speed	/jointset/hip_l/hip_adduction_l/speed	/jointset/hip_l/hip_rotation_l/speed	/jointset/back/lumbar_extension/speed	/jointset/patellofemoral_l/patellar_flexion_l/speed	/jointset/knee_l/knee_flexion_l/speed	/jointset/knee_l/knee_adduction_l/speed	/jointset/knee_l/knee_rotation_l/speed	/jointset/ankle_l/ankle_angle_l/speed	/jointset/subtalar_l/subtalar_angle_l/speed	/forceset/tau_hip_flexion_l	/forceset/tau_hip_adduction_l	/forceset/tau_hip_rotation_l	/forceset/tau_knee_flexion_l	/forceset/tau_ankle_angle_l	/forceset/tau_subtalar_angle_l	/forceset/tau_lumbar_extension	lambda_cid13_p0	lambda_cid13_p1	lambda_cid13_p2	lambda_cid13_p3	lambda_cid13_p4	lambda_cid13_p5	lambda_cid14_p0	/jointset/ground_pelvis/pelvis_tilt/accel	/jointset/ground_pelvis/pelvis_tx/accel	/jointset/ground_pelvis/pelvis_ty/accel	/jointset/hip_l/hip_flexion_l/accel	/jointset/hip_l/hip_adduction_l/accel	/jointset/hip_l/hip_rotation_l/accel	/jointset/back/lumbar_extension/accel	/jointset/patellofemoral_l/patellar_flexion_l/accel	/jointset/knee_l/knee_flexion_l/accel	/jointset/knee_l/knee_adduction_l/accel	/jointset/knee_l/knee_rotation_l/accel	/jointset/ankle_l/ankle_angle_l/accel	/jointset/subtalar_l/subtalar_angle_l/accel	gamma_cid13_p0	gamma_cid13_p1	gamma_cid13_p2	gamma_cid13_p3	gamma_cid13_p4	gamma_cid13_p5	gamma_cid14_p0
1	-0.1893766997213766	-0.09907692600616989	0.7144567569082103	1.319531783789474	-0.327828692476671	0.005118239646248174	-0.9599209469097495	1.180887907053117	1.180887907053042	-0.08069489826922811	-0.1745239717841998	0.1298597309189084	0.007235710700447716	0.1023681957974061	0.02616535213544059	0.06808357273444113	-0.289469212742118	-2.185439142162713e-05	-0.06447583636016085	-0.001958052345748991	-0.1631752071113458	-0.1631752071113467	0.002076264355152929	-6.044223583173511e-05	0.01583543936380381	0.00663165644945166	-0.4220950785246199	0.03258582109412576	-0.004893990147616518	-0.2851789738876225	0.1129379317713144	0.02735561358070695	0.4471745111808113	-14.7121679707972	-8.616321462830079	0.1332485840996287	6.184863189156181	-790.1586610171518	-53.30664300798401	-1.391034951755577	1.243876491327642	0.181963386167188	1.320257728140843	-4.964263284187443	-0.02782624558998054	-1.446212883308249	0.1656429287383051	-4.165789680446531	-4.165789680446562	-0.1843052640053326	-0.006100066897347259	-0.7159722263554882	-0.2662387234057498	-1.019566130633764e-08	-9.178430485176537e-09	3.760628900226075e-08	5.808362122083738e-09	-2.366890915631227e-08	5.808488954008784e-08	-1.105584993269326e-08
1.01	-0.1882914637217376	-0.09880611304277138	0.7152034247181065	1.316389834554502	-0.3278296360062168	0.004401098553133967	-0.9599310812965215	1.179048023352031	1.179048023351867	-0.08068228368106174	-0.1745240812321322	0.1299823440879652	0.007289493933464998	0.1146653615318338	0.02800615430944754	0.08124346649548382	-0.3389093669708916	-0.0001588377664523995	-0.0789352872517132	-1.193417243981121e-05	-0.2048141141252625	-0.2048141141252631	0.000431388809301787	4.767597968702343e-05	0.008676997790105964	0.004130052878594428	-0.4216840851558049	0.03286822832424317	-0.004928274319377162	-0.2849537263171328	0.1127996724585236	0.02742213229701348	0.4472499963538322	-14.7461870075612	-8.64595778348553	0.1456306523015582	6.028467539967311	-790.1547223155771	-53.34406613348035	-1.425360703085173	1.220588729181823	0.1864781203970426	1.312870807171915	-4.932203695491975	-0.005434159226757302	-1.443260463776408	0.2176299025968881	-4.164825367212081	-4.164825367211987	-0.1568763238231786	0.02064942149384762	-0.7173108682728799	-0.2413654796832595	-1.619516889390871e-08	-1.616030908993048e-08	5.491306798011236e-08	1.205124711772032e-08	-2.983986059968386e-08	6.716841078553265e-08	-1.494820456541091e-08
1.02	-0.187083665641832	-0.09851662416015693	0.7160814945870304	1.312753821336543	-0.3278317093246765	0.003539873096786261	-0.9599200477743532	1.176791373749736	1.176791373749512	-0.08068657737312583	-0.1745228331668027	0.1300330666922048	0.007318412269622168	0.1268806118535251	0.02990053597862848	0.09436398453990594	-0.3882820093304637	-0.0002478121721759092	-0.09329270901118077	0.002275529639657703	-0.2465283873530964	-0.2465283873530966	-0.001305391694476953	0.0002110604238934411	0.001457326400567569	0.001658677077431012	-0.4212730917871176	0.03315063555436965	-0.004962558491149065	-0.2847284787466456	0.1126614131457601	0.0274886510133403	0.4473254815267324	-14.79045540107965	-8.673771132137043	0.157689753564093	5.906987855187748	-790.2906282469735	-53.37218481477021	-1.468019382705691	1.227493408780527	0.1926792852018937	1.3123825848167	-4.950760910347131	-0.01822445172852802	-1.425807056891305	0.2339120564962452	-4.180862923229942	-4.180862923229943	-0.2026862555908354	0.004953178840171065	-0.7282181895237374	-0.2601931694670347	-1.982382894184245e-08	-2.664692369882751e-08	6.398122560042714e-08	1.311404459165497e-08	-3.325440804585139e-08	7.279094178135423e-08	-1.832514009337024e-08
1.03	-0.1857548825490544	-0.09820778399416956	0.7170904337304698	1.308625284424303	-0.327834427606746	0.00253545105728948	-0.9598826230382461	1.174117416481196	1.174117416481238	-0.08070852727177685	-0.1745198078510009	0.1300114084113583	0.007322821206090529	0.1387849379465737	0.0318905039252862	0.1074033088255081	-0.4373262762282804	-0.0002877208757936046	-0.1075916848224558	0.005449344992124338	-0.2882548350870997	-0.2882548350870997	-0.003080284021363621	0.000387607490467288	-0.005787216570481949	-0.0007669762598110678	-0.4216217085895078	0.0335437179392627	-0.005011265317010215	-0.2841438056628824	0.1126261850827978	0.02763370018394828	0.4484425291196162	-14.80826521512837	-8.746435698022346	0.1838814943857568	5.44879422023268	-790.7912239954171	-53.40871012075493	-1.519355092205856	1.15823987103948	0.205609386079869	1.296619703297092	-4.866398040964413	0.004342430131192995	-1.431960475031292	0.3951053836445094	-4.167296648426777	-4.167296648426718	-0.1642577471726524	0.02306356158520302	-0.7223098823190673	-0.2322667741725739	-2.342829666794315e-08	-3.716930092001172e-08	7.296531565586906e-08	1.412398402965385e-08	-3.664082892061887e-08	7.837815655013882e-08	-2.169681624270958e-08
1.04	-0.1843097886630622	-0.09787835338137921	0.7182291485873387	1.304009277150774	-0.3278373016738961	0.001388035733340887	-0.9598062623267093	1.171026442545327	1.171026442545647	-0.08074809949886673	-0.174515205446363	0.1299173571945159	0.007303270537522476	0.1501427704985298	0.03401862533922385	0.1203191272257019	-0.485776081584718	-0.0002789691870351281	-0.1218913659051668	0.01006272470549656	-0.3299317208187552	-0.329931720818755	-0.004829857385654314	0.0005264781978024154	-0.01302126079847449	-0.003133243929848897	-0.4219703253919367	0.03393680032416936	-0.005059972142838205	-0.2835591325791199	0.1125909570198465	0.02777874935457529	0.4495595767124606	-14.8364991388822	-8.817331526813177	0.2098558132631149	5.025213840238209	-791.4344651523184	-53.43689212537184	-1.57973453237943	1.118194700562165	0.220309978657806	1.287681407734976	-4.831868602071331	-0.008492373253329152	-1.425948111178571	0.5218249286770027	-4.170950522760356	-4.170950522760355	-0.1976224630716356	-0.002582093007660379	-0.7261184409124538	-0.2483160360262632	-2.649599766268225e-08	-4.495696483583913e-08	8.359918334662205e-08	1.527778114233905e-08	-4.101640273352772e-08	8.28317008693969e-08	-2.45423109878947e-08
1.05	-0.182753412829359	-0.09752692583582469	0.7194964030204501	1.298911359888568	-0.3278398300500059	9.779155698092776e-05	-0.9596771507564437	1.167519067196144	1.167519067196518	-0.08080515549434118	-0.1745093581961375	0.1297510964560745	0.007260398279304808	0.1610818843051585	0.0362923064027804	0.1331107696538902	-0.533743435779565	-0.0002152245571326212	-0.1361443663118988	0.01594518826019774	-0.3715236132978726	-0.3715236132978733	-0.006582390313105617	0.0006422488357938188	-0.02022140988608988	-0.005424752039630816	-0.4219168143608582	0.03437254876202687	-0.005116446768488903	-0.282802338660993	0.1125961728640428	0.02795312784542503	0.4503055691202115	-14.82203819389655	-8.911728492895511	0.2433322883011057	4.549028120578854	-791.6392813578236	-53.48948893657801	-1.649599284528801	1.074190406203748	0.2347138636289544	1.271748069799936	-4.769582274940314	0.01552674921757794	-1.423035639611616	0.6492969051894497	-4.150342749529198	-4.150342749529285	-0.1642419526038011	0.0185703329888995	-0.7155447187335084	-0.2171022464235242	-2.954692469706631e-08	-5.265916896087416e-08	9.42846065884785e-08	1.643607380735819e-08	-4.542288757575348e-08	8.724981798710728e-08	-2.73713625642e-08
1.06	-0.1810891617204988	-0.09715199814094977	0.7208909423597321	1.29333568639507	-0.3278413772061979	-0.001334594550266592	-0.9594836465833404	1.16359636609436	1.163596366094784	-0.08087977146808757	-0.1745023705013994	0.1295131179115468	0.007195104130395419	0.1717178255314202	0.03871865520330538	0.1457761084596758	-0.581327327844362	-8.272520301765997e-05	-0.1503197520862805	0.02294124526781507	-0.4129968713386609	-0.4129968713386624	-0.008341853041433199	0.0007545671052319571	-0.02736482201560502	-0.007617622068191744	-0.4218633033297243	0.03480829719991011	-0.005172921394198568	-0.2820455447428643	0.1126013887082366	0.02812750633630408	0.451051561528009	-14.81809662384163	-9.004465087809253	0.2767514508245684	4.106291571328121	-791.9887202568268	-53.53527972393154	-1.729408521614256	1.057560184488861	0.2508435260514364	1.262420683254417	-4.755176176061396	0.005258571589103129	-1.410425184708592	0.7445436192601635	-4.147223635094492	-4.147223635094493	-0.1990084232468952	-0.003272566718457155	-0.7147710492924941	-0.228588419782166	-3.235178070273163e-08	-6.062315222036648e-08	1.019867815119869e-07	1.758086656284068e-08	-4.949674513822658e-08	8.948888658505195e-08	-2.971490863109023e-08
